#!OML:ASF H:\MichaelJackson\Top Level 1\Subject 1\Session 1\male.ASF
:FULLY-SPECIFIED
:DEGREES
605
root 4.41487 15.7743 30.2623 5.99131 9.00196 4.81066
lowerback -2.99408 -3.06969 -0.127585
upperback 0.120529 -4.00629 -5.03816
thorax 1.4477 -1.99114 -5.2949
lowerneck -5.02198 -1.66009 3.6132
upperneck 1.19208 -2.53199 3.57869
head 1.20826 -1.18102 0.440555
rclavicle -5.82936e-014 -3.89618e-014
rhumerus -14.01 29.4063 -7.48512
rradius 76.7245
rwrist -21.8419
rhand 24.4794 -16.9142
rfingers 7.12502
rthumb 48.6828 -398.802
lclavicle -5.82936e-014 -3.89618e-014
lhumerus -51.3776 -34.8333 108.925
lradius 55.3451
lwrist 32.2583
lhand 29.1918 34.8498
lfingers 7.12502
lthumb 52.9789 54.3555
rfemur -16.4475 -4.12479 -7.6059
rtibia 45.3949
rfoot -16.5086 -10.2591
rtoes -45.51
lfemur -7.82747 -7.15736 1.18816
ltibia 17.7976
lfoot -27.2664 -22.9012
ltoes -17.5515
606
root 4.35457 15.7588 30.2513 6.05481 8.99602 4.50216
lowerback -2.92882 -3.06729 0.18961
upperback 0.100343 -4.01997 -4.89187
thorax 1.37772 -1.99771 -5.31584
lowerneck -5.08323 -1.64756 3.61019
upperneck 1.21639 -2.5195 3.58357
head 1.22675 -1.17339 0.442217
rclavicle 1.83876e-015 7.4743e-014
rhumerus -12.2899 25.3244 -6.05319
rradius 70.2996
rwrist -20.7194
rhand 18.5914 -17.865
rfingers 7.12502
rthumb 43.2207 -402.032
lclavicle 1.83876e-015 7.4743e-014
lhumerus -51.2906 -35.0081 109.256
lradius 55.0759
lwrist 32.1835
lhand 29.1772 35.022
lfingers 7.12502
lthumb 52.9657 54.5361
rfemur -16.7451 -4.90553 -7.17391
rtibia 45.6434
rfoot -17.3566 -9.57891
rtoes -45.2338
lfemur -7.86598 -7.75482 1.56952
ltibia 17.8599
lfoot -27.9814 -20.2905
ltoes -19.5977
607
root 4.29853 15.7456 30.2393 6.11635 8.96757 4.20359
lowerback -2.84468 -3.04471 0.453747
upperback 0.0638654 -4.00547 -4.70657
thorax 1.28947 -1.99106 -5.26342
lowerneck -5.14568 -1.65363 3.56008
upperneck 1.29003 -2.53016 3.5579
head 1.26137 -1.17683 0.441431
rclavicle 6.09275e-014 4.21423e-014
rhumerus -10.5171 20.5547 -4.95711
rradius 63.7082
rwrist -19.5663
rhand 10.971 -19.4095
rfingers 7.12502
rthumb 36.0467 -405.715
lclavicle 6.09275e-014 4.21423e-014
lhumerus -51.205 -35.0883 109.648
lradius 54.765
lwrist 31.7323
lhand 29.3566 34.8583
lfingers 7.12502
lthumb 53.1276 54.2695
rfemur -17.0722 -5.67908 -6.76224
rtibia 45.9051
rfoot -18.1258 -8.83196
rtoes -44.9402
lfemur -7.90547 -8.26148 1.91235
ltibia 17.9394
lfoot -28.3805 -17.7775
ltoes -21.278
608
root 4.24554 15.7342 30.2266 6.17091 8.9212 3.94291
lowerback -2.7449 -3.00961 0.633568
upperback 0.0209201 -3.97113 -4.49609
thorax 1.19529 -1.97514 -5.13561
lowerneck -5.19793 -1.67276 3.48057
upperneck 1.3902 -2.55574 3.49654
head 1.30259 -1.18805 0.434048
rclavicle 8.12532e-014 1.66979e-014
rhumerus -8.6718 14.9216 -4.21233
rradius 57.1655
rwrist -18.301
rhand 2.9312 -21.1355
rfingers 7.12502
rthumb 28.3948 -409.002
lclavicle 8.12532e-014 1.66979e-014
lhumerus -51.1286 -35.0861 110.072
lradius 54.4377
lwrist 30.9983
lhand 29.6674 34.3761
lfingers 7.12502
lthumb 53.4077 53.6068
rfemur -17.3907 -6.39639 -6.39635
rtibia 46.151
rfoot -18.8435 -8.06473
rtoes -44.6105
lfemur -7.93186 -8.72102 2.20284
ltibia 18.0085
lfoot -28.5128 -15.4217
ltoes -22.6729
609
root 4.19457 15.724 30.2138 6.21455 8.87299 3.7448
lowerback -2.63218 -2.96979 0.717702
upperback -0.0182426 -3.92655 -4.2802
thorax 1.10553 -1.95436 -4.94779
lowerneck -5.25129 -1.70433 3.38572
upperneck 1.51003 -2.59644 3.39998
head 1.35002 -1.20721 0.417766
rclavicle -3.14577e-014 1.59028e-015
rhumerus -6.76498 8.16379 -3.86421
rradius 50.9281
rwrist -16.7015
rhand -4.94487 -23.3977
rfingers 7.12502
rthumb 20.8464 -412.298
lclavicle -3.14577e-014 1.59028e-015
lhumerus -51.0694 -35.0347 110.492
lradius 54.1296
lwrist 30.1285
lhand 30.0062 33.6606
lfingers 7.12502
lthumb 53.7126 52.6912
rfemur -17.6552 -7.03063 -6.09793
rtibia 46.3483
rfoot -19.5392 -7.33007
rtoes -44.2277
lfemur -7.94032 -9.18379 2.43162
ltibia 18.0477
lfoot -28.4406 -13.2671
ltoes -23.8613
610
root 4.14468 15.7145 30.2013 6.24321 8.84739 3.62211
lowerback -2.50712 -2.93062 0.714369
upperback -0.0474786 -3.87918 -4.07833
thorax 1.02397 -1.93218 -4.7255
lowerneck -5.3066 -1.75122 3.29225
upperneck 1.63631 -2.65648 3.26856
head 1.39936 -1.23673 0.389792
rclavicle 4.52732e-014 2.70347e-014
rhumerus -4.83906 0.104383 -3.96109
rradius 45.3317
rwrist -14.633
rhand -12.4194 -26.5976
rfingers 7.12502
rthumb 13.6529 -416.13
lclavicle 4.52732e-014 2.70347e-014
lhumerus -51.0302 -34.9621 110.876
lradius 53.871
lwrist 29.2684
lhand 30.2927 32.8342
lfingers 7.12502
lthumb 53.97 51.6925
rfemur -17.8204 -7.57353 -5.87504
rtibia 46.4683
rfoot -20.2438 -6.68018
rtoes -43.7735
lfemur -7.93547 -9.66384 2.60191
ltibia 18.0475
lfoot -28.2249 -11.3904
ltoes -24.8753
611
root 4.09535 15.7052 30.19 6.25567 8.86855 3.57062
lowerback -2.37228 -2.89471 0.652513
upperback -0.0658706 -3.83364 -3.90633
thorax 0.949401 -1.91077 -4.50186
lowerneck -5.35975 -1.813 3.21444
upperneck 1.75617 -2.73574 3.11214
head 1.44569 -1.27664 0.350851
rclavicle 9.39258e-015 2.62396e-014
rhumerus -2.91938 -9.16986 -4.52052
rradius 40.7277
rwrist -12.1677
rhand -19.7422 -31.7318
rfingers 7.12502
rthumb 6.58866 -421.609
lclavicle 9.39258e-015 2.62396e-014
lhumerus -51.017 -34.9005 111.199
lradius 53.6892
lwrist 28.5537
lhand 30.4723 32.0466
lfingers 7.12502
lthumb 54.1311 50.7956
rfemur -17.8563 -8.03505 -5.71626
rtibia 46.4927
rfoot -20.9795 -6.1679
rtoes -43.2487
lfemur -7.92834 -10.1725 2.73085
ltibia 18.0079
lfoot -27.9264 -9.82912
ltoes -25.7446
612
root 4.0462 15.6956 30.1802 6.25221 8.95751 3.57312
lowerback -2.22608 -2.8651 0.564323
upperback -0.0747221 -3.79531 -3.76898
thorax 0.876701 -1.89281 -4.2998
lowerneck -5.41 -1.88861 3.15744
upperneck 1.85816 -2.83317 2.94466
head 1.48526 -1.32636 0.304483
rclavicle -8.23962e-014 8.74653e-015
rhumerus -1.04201 -18.9964 -5.46972
rradius 37.4286
rwrist -9.86984
rhand -26.8068 -38.6451
rfingers 7.12502
rthumb -0.233507 -428.625
lclavicle -8.23962e-014 8.74653e-015
lhumerus -51.0241 -34.8569 111.448
lradius 53.5977
lwrist 28.0755
lhand 30.518 31.4143
lfingers 7.12502
lthumb 54.1721 50.1353
rfemur -17.751 -8.43299 -5.595
rtibia 46.4186
rfoot -21.74 -5.84205
rtoes -42.6798
lfemur -7.93565 -10.6923 2.84525
ltibia 17.9366
lfoot -27.5934 -8.61786
ltoes -26.4708
